<svg xmlns="http://www.w3.org/2000/svg" viewBox="0 0 512 512">
	<path d="M506.688 86.763a10.709 10.709 0 0 0-10.645-.021l-133.376 76.203v-45.611c0-17.643-14.357-32-32-32H55.275C17.301 85.333 0 173.803 0 256s17.301 170.667 55.275 170.667h275.392c17.643 0 32-14.357 32-32v-45.611l133.376 76.203a10.68 10.68 0 0 0 5.291 1.408c1.856 0 3.691-.469 5.355-1.429a10.713 10.713 0 0 0 5.312-9.237V96a10.689 10.689 0 0 0-5.313-9.237zm-16.021 310.848l-133.376-76.203a10.66 10.66 0 0 0-10.645.021 10.713 10.713 0 0 0-5.312 9.237v64c0 5.888-4.779 10.667-10.667 10.667H55.275c-10.155 0-33.941-50.795-33.941-149.333S45.12 106.667 55.275 106.667h275.392c5.888 0 10.667 4.779 10.667 10.667v64c0 3.819 2.027 7.317 5.312 9.237a10.709 10.709 0 0 0 10.645.021l133.376-76.203v283.222z"/>
</svg>